<svg data-v-0dd9719b="" version="1.0" xmlns="http://www.w3.org/2000/svg" xmlns:xlink="http://www.w3.org/1999/xlink" width="100%" height="100%" viewBox="0 0 340.000000 250.000000" preserveAspectRatio="xMidYMid meet" color-interpolation-filters="sRGB" style="margin: auto;"> <rect data-v-0dd9719b="" x="0" y="0" width="100%" height="100%" fill="#fff" fill-opacity="1" class="background"></rect> <rect data-v-0dd9719b="" x="0" y="0" width="100%" height="100%" fill="url(#watermark)" fill-opacity="1" class="watermarklayer"></rect> <g data-v-0dd9719b="" fill="#ff7f00" class="icon-text-wrapper icon-svg-group iconsvg" transform="translate(48.029998779388876,101.08874702453613)"><g class="iconsvg-imagesvg" transform="translate(0,5.536779403686523)"><g><rect fill="#ff7f00" fill-opacity="0" stroke-width="2" x="0" y="0" width="60" height="36.7489434678753" class="image-rect"></rect> <svg x="0" y="0" width="60" height="36.7489434678753" filtersec="colorsb8801627360" class="image-svg-svg primary" style="overflow: visible;"><svg xmlns="http://www.w3.org/2000/svg" viewBox="0.027576187625527382 -0.039846621453762054 1214.7960205078125 744.0399169921875"><defs><linearGradient id="a5ad3b9e5-b0d4-4d73-af68-f7a3eb3530eb" x1="766.71" y1="371.98" x2="1214.82" y2="371.98" gradientUnits="userSpaceOnUse"><stop offset="0" stop-color="#ffc64a"></stop><stop offset=".12" stop-color="#ffc143"></stop><stop offset=".3" stop-color="#ffb531"></stop><stop offset=".5" stop-color="#ffa013"></stop><stop offset=".61" stop-color="#ff9300"></stop><stop offset="1" stop-color="#ff7f00"></stop></linearGradient><linearGradient id="bb2ce2235-ed30-478a-8ce7-7fc523ead01d" x1="511.14" y1="371.98" x2="959.24" y2="371.98" gradientUnits="userSpaceOnUse"><stop offset="0" stop-color="#ffc64a"></stop><stop offset=".12" stop-color="#ffc143"></stop><stop offset=".3" stop-color="#ffb531"></stop><stop offset=".5" stop-color="#ffa013"></stop><stop offset=".61" stop-color="#ff9300"></stop><stop offset="1" stop-color="#ff7f00"></stop></linearGradient><linearGradient id="cba541aa6-71f6-44bf-92e5-eb7380e2a80f" x1="255.57" y1="371.98" x2="703.67" y2="371.98" gradientUnits="userSpaceOnUse"><stop offset="0" stop-color="#ffc64a"></stop><stop offset=".12" stop-color="#ffc143"></stop><stop offset=".3" stop-color="#ffb531"></stop><stop offset=".5" stop-color="#ffa013"></stop><stop offset=".61" stop-color="#ff9300"></stop><stop offset="1" stop-color="#ff7f00"></stop></linearGradient><linearGradient id="d6b2fb833-f990-4bbe-8b69-1eccbaaba89e" y1="371.98" x2="448.1" y2="371.98" gradientUnits="userSpaceOnUse"><stop offset="0" stop-color="#ffc64a"></stop><stop offset=".12" stop-color="#ffc143"></stop><stop offset=".3" stop-color="#ffb531"></stop><stop offset=".5" stop-color="#ffa013"></stop><stop offset=".61" stop-color="#ff9300"></stop><stop offset="1" stop-color="#ff7f00"></stop></linearGradient></defs><g style="isolation:isolate"><g style="mix-blend-mode:multiply"><path d="M862.92 744a96.29 96.29 0 0 1-87.26-136.74L1031.23 55.8a96.24 96.24 0 1 1 174.64 80.94L950.3 688.16A96.26 96.26 0 0 1 862.92 744z" fill="url(#a5ad3b9e5-b0d4-4d73-af68-f7a3eb3530eb)" style="mix-blend-mode:multiply"></path><path d="M863 744a96.25 96.25 0 0 1-87.38-55.8L520.09 136.74A96.24 96.24 0 1 1 694.73 55.8L950.3 607.22A96.29 96.29 0 0 1 863 744z" fill="url(#bb2ce2235-ed30-478a-8ce7-7fc523ead01d)" style="mix-blend-mode:multiply"></path><path d="M351.77 744a96.29 96.29 0 0 1-87.26-136.74L520.09 55.8a96.24 96.24 0 1 1 174.64 80.94L439.16 688.16A96.26 96.26 0 0 1 351.77 744z" fill="url(#cba541aa6-71f6-44bf-92e5-eb7380e2a80f)" style="mix-blend-mode:multiply"></path><path d="M351.9 744a96.25 96.25 0 0 1-87.38-55.8L8.95 136.74A96.24 96.24 0 1 1 183.59 55.8l255.57 551.42A96.29 96.29 0 0 1 351.9 744z" fill="url(#d6b2fb833-f990-4bbe-8b69-1eccbaaba89e)" style="mix-blend-mode:multiply"></path></g></g></svg></svg> <!----></g></g> <g transform="translate(67,0)"><g data-gra="path-name" fill-rule="" class="tp-name iconsvg-namesvg" transform="translate(0,0)"><g transform="scale(1)"><g><path d="M33.22-24.33L33.22-24.33 31.29-22.78Q29.53-25.1 26.26-27.74L26.26-27.74Q26.05-27.91 25.88-28.05L25.88-28.05 27.77-29.43Q30.94-27.11 32.94-24.68L32.94-24.68Q33.12-24.47 33.22-24.33ZM4.96-27.95L18.6-27.95 18.6-25.52 4.96-25.52 4.96-27.95ZM20.39-10.23L14.17-10.23 14.17-2.5Q15.29-2.71 17.58-3.13L17.58-3.13Q20.11-3.62 21.38-3.83L21.38-3.83 21.55-1.34Q15.61-0.21 2.32 2.18L2.32 2.18 1.65-0.39 4.89-0.91 4.89-14.94 7.38-14.94 7.38-1.34 11.6-2.07 11.6-17.65 14.17-17.65 14.17-12.62 20.39-12.62 20.39-10.23ZM33.93-21.41L33.93-18.91 24.43-18.91Q25.35-6.15 28.23-1.69L28.23-1.69Q29.46 0.14 30.83 0.18L30.83 0.18Q31.96 0.18 32.24-4.75L32.24-4.75Q32.31-5.59 32.34-6.57L32.34-6.57Q33.29-5.7 34.59-5.17L34.59-5.17Q34.17 0.46 32.91 1.9L32.91 1.9Q32.06 2.81 30.55 2.81L30.55 2.81Q23.41 2.71 21.87-18.91L21.87-18.91 2.07-18.91 2.07-21.41 21.69-21.41Q21.45-26.23 21.45-29.95L21.45-29.95 24.12-29.95Q24.08-25.66 24.29-21.41L24.29-21.41 33.93-21.41ZM47.53-25.63L47.53-25.63 46.13-23.59Q44.02-25.49 39.69-27.49L39.69-27.49Q39.52-27.56 39.38-27.63L39.38-27.63 40.75-29.53Q45.11-27.63 47.43-25.7L47.43-25.7Q47.5-25.66 47.53-25.63ZM45.6-16.1L45.6-16.1 44.33-13.92Q42.12-15.82 38.21-17.61L38.21-17.61Q37.9-17.79 37.62-17.89L37.62-17.89 38.92-19.79Q43.28-17.89 45.6-16.1ZM45.42-11L45.42-11 47.18-9.32Q44.3-3.34 40.71 2.29L40.71 2.29 38.64 0.49Q42.19-4.57 45.42-11ZM65.71-24.82L65.71-24.82 53.02-24.82Q55.16-15.4 59.31-9.25L59.31-9.25Q63.98-15.68 65.71-24.82ZM66.45-27.35L66.9-27.49 68.59-26.93Q66.73-14.7 60.86-7.07L60.86-7.07Q65.11-1.86 70.77 0.49L70.77 0.49Q70.03 1.09 69.01 2.64L69.01 2.64Q63.25 0.07 59.13-4.99L59.13-4.99Q54.49 0.04 47.74 2.74L47.74 2.74Q46.97 1.27 46.23 0.53L46.23 0.53Q52.84-1.86 57.59-7.14L57.59-7.14Q53.02-13.78 50.52-24.82L50.52-24.82 49.01-24.82 49.01-27.35 66.45-27.35ZM101.81-14.38L101.81-19.09 95.73-19.09 95.73-14.38 101.81-14.38ZM93.13-19.09L87.33-19.09 87.33-14.38 93.13-14.38 93.13-19.09ZM84.9-21.2L93.13-21.2 93.13-24.22 83.67-24.22 83.67-26.54 93.13-26.54 93.13-30.06 95.73-30.06 95.73-26.54 105.86-26.54 105.86-24.22 95.73-24.22 95.73-21.2 104.41-21.2 104.41-12.23 96.93-12.23Q99.77-8.68 103.96-6.19L103.96-6.19Q105.08-5.52 106.1-5.06L106.1-5.06Q105.12-4.29 104.27-2.99L104.27-2.99Q100.27-5.17 96.64-9.35L96.64-9.35Q96.15-9.91 95.73-10.44L95.73-10.44 95.73-1.83 93.13-1.83 93.13-10.62Q90.21-6.43 86.03-3.76L86.03-3.76Q85.25-3.3 84.55-2.92L84.55-2.92Q83.71-4.18 82.83-4.92L82.83-4.92Q86.84-6.64 90.11-10.27L90.11-10.27Q91.02-11.25 91.69-12.23L91.69-12.23 84.9-12.23 84.9-21.2ZM83.04-25.38L83.04-25.38 81.18-23.55Q79.56-25.52 75.94-27.67L75.94-27.67Q75.62-27.88 75.34-28.02L75.34-28.02 77.1-29.67Q81.04-27.56 82.9-25.56L82.9-25.56Q82.97-25.45 83.04-25.38ZM82.02-18.35L82.02-18.35 80.16-16.45Q78.26-18.46 74.57-20.43L74.57-20.43Q74.21-20.6 73.93-20.74L73.93-20.74 75.69-22.46Q79.31-20.81 81.63-18.7L81.63-18.7Q81.88-18.49 82.02-18.35ZM73.79-13.5L81.11-13.5 81.11-4.5Q83.6-0.7 90.18-0.42L90.18-0.42Q98.4-0.21 105.96-0.63L105.96-0.63Q106.31-0.63 106.59-0.67L106.59-0.67Q105.93 0.46 105.68 1.97L105.68 1.97Q97.38 2.25 90.21 2.07L90.21 2.07Q83.5 1.76 80.26-1.83L80.26-1.83Q80.09-2 79.95-2.18L79.95-2.18Q78.08-0.39 74.74 2.43L74.74 2.43 73.34-0.21Q75.83-1.93 78.5-4.32L78.5-4.32 78.5-11 73.79-11 73.79-13.5ZM118.79-7.59L118.79-7.59 119-5.59Q115.07-4.39 109.93-3.06L109.93-3.06 109.41-5.27Q112.43-5.94 118.79-7.59ZM120.02-13.29L120.02-13.29 122.84-13.29Q122.84-13.25 122.8-12.16L122.8-12.16Q122.13-1.3 121.01 0.98L121.01 0.98Q120.8 1.41 120.55 1.65L120.55 1.65Q119.78 2.6 118.34 2.71L118.34 2.71Q118.27 2.71 118.23 2.71L118.23 2.71Q116.89 2.85 113.91 2.67L113.91 2.67Q113.77 1.34 113.17 0.42L113.17 0.42Q114.93 0.6 117.28 0.6L117.28 0.6Q118.16 0.56 118.55 0.21L118.55 0.21Q119.67-0.91 120.27-9.91L120.27-9.91Q120.3-10.51 120.34-11.07L120.34-11.07 110.64-11.07Q111.34-16.28 111.73-23.41L111.73-23.41 114.08-23.27Q113.73-18 113.17-13.29L113.17-13.29 117.67-13.29Q118.55-20.85 118.93-26.79L118.93-26.79 110.39-26.79 110.39-29.11 121.43-29.11Q120.8-20.14 120.02-13.29ZM140.45-9.25L133.77-9.25 133.77-5.55 142.1-5.55 142.1-3.09 133.77-3.09 133.77 2.71 131.2 2.71 131.2-3.09 123.01-3.09 123.01-5.55 131.2-5.55 131.2-9.25 124.38-9.25 124.38-11.64 131.2-11.64 131.2-14.8 133.77-14.8 133.77-11.64 140.45-11.64 140.45-9.25ZM137.64-25.77L137.64-25.77 127.72-25.77Q129.55-22.89 132.4-20.67L132.4-20.67Q135.7-23.06 137.64-25.77ZM139.22-28.2L139.64-28.3 141.29-27.39Q139.08-22.71 134.47-19.27L134.47-19.27Q138.3-16.88 142.88-15.82L142.88-15.82Q141.93-14.98 141.26-13.61L141.26-13.61Q136.34-14.98 132.33-17.79L132.33-17.79Q128.07-15.15 123.47-13.75L123.47-13.75Q122.94-14.98 122.06-15.89L122.06-15.89Q126.28-16.95 130.36-19.37L130.36-19.37Q127.16-22.15 125.19-25.77L125.19-25.77 123.47-25.77 123.47-28.2 139.22-28.2ZM165.66-15.93L165.66-19.09 159.61-19.09 159.61-15.93 165.66-15.93ZM168.08-15.93L174.34-15.93 174.34-19.09 168.08-19.09 168.08-15.93ZM168.08-13.92L168.08-10.65 174.34-10.65 174.34-13.92 168.08-13.92ZM159.61-13.92L159.61-10.65 165.66-10.65 165.66-13.92 159.61-13.92ZM165.66-8.61L159.61-8.61 159.61-2.64 157.11-2.64 157.11-21.13 167.38-21.13Q164.07-22.78 160.52-24.12L160.52-24.12 162.21-25.63Q163.72-25.1 167.2-23.66L167.2-23.66Q169.98-24.93 172.16-26.51L172.16-26.51 157.15-26.51 157.15-28.62 174.69-28.62 175.22-28.76 176.87-27.49Q173.95-24.75 169.59-22.57L169.59-22.57Q169.84-22.46 172.37-21.13L172.37-21.13 176.91-21.13 176.91-5.31Q176.91-3.62 175.96-3.09L175.96-3.09Q175.82-3.02 175.68-2.95L175.68-2.95Q174.59-2.57 170.82-2.57L170.82-2.57Q170.65-3.62 170.05-4.75L170.05-4.75Q171-4.71 173.74-4.71L173.74-4.71Q174.3-4.78 174.34-5.34L174.34-5.34 174.34-8.61 168.08-8.61 168.08-2.78 165.66-2.78 165.66-8.61ZM154.55-25.45L154.55-25.45 152.68-23.7Q151.14-25.63 147.73-27.67L147.73-27.67Q147.38-27.88 147.09-28.05L147.09-28.05 148.85-29.67Q152.26-27.88 154.2-25.84L154.2-25.84Q154.41-25.63 154.55-25.45ZM153.53-18.35L153.53-18.35 151.73-16.49Q149.98-18.42 146.32-20.53L146.32-20.53Q146.07-20.67 145.86-20.78L145.86-20.78 147.55-22.43Q150.93-20.81 153.11-18.77L153.11-18.77Q153.35-18.53 153.53-18.35ZM145.69-13.5L152.72-13.5 152.72-4.39Q155.25-0.63 161.96-0.35L161.96-0.35Q169.42-0.11 177.5-0.49L177.5-0.49Q178.1-0.53 178.59-0.56L178.59-0.56Q177.93 0.56 177.68 2L177.68 2Q168.89 2.32 162 2.07L162 2.07Q155.29 1.83 152.05-1.65L152.05-1.65Q151.84-1.9 151.63-2.14L151.63-2.14Q149.48 0 146.74 2.46L146.74 2.46 145.34-0.11Q147.2-1.44 150.19-4.18L150.19-4.18 150.19-11 145.69-11 145.69-13.5Z" transform="translate(-1.6500000953674316, 30.059999465942383)"></path></g> <!----> <!----> <!----> <!----> <!----> <!----> <!----></g></g> <g data-gra="path-slogan" fill-rule="" class="tp-slogan iconsvg-slogansvg" fill="#ff7f00" transform="translate(33.55500411987305,38.869998931884766)"><!----> <!----> <g transform="scale(1, 1)"><g transform="scale(1)"><path d="M5.67-7.13L5.63-7.13L3.66 0L2.44 0L0.19-8.58L1.41-8.58L3.05-1.59L3.09-1.59L5.02-8.58L6.28-8.58L8.20-1.59L8.25-1.59L9.84-8.58L11.11-8.58L8.86 0L7.64 0L5.67-7.13ZM17.86-3.19L17.86-8.58L19.03-8.58L19.03-3.05Q18.89 0.05 15.52 0.14L15.52 0.14Q12.38 0.05 12.23-2.86L12.23-2.86L12.23-8.58L13.41-8.58L13.41-3.19Q13.45-0.84 15.56-0.80L15.56-0.80Q17.86-0.84 17.86-3.19L17.86-3.19ZM21.98-5.06L26.48-5.06L26.48-8.58L27.66-8.58L27.66 0L26.48 0L26.48-3.98L21.98-3.98L21.98 0L20.81 0L20.81-8.58L21.98-8.58L21.98-5.06ZM35.11 0L34.27-2.48L30.80-2.48L29.91 0L28.73 0L31.97-8.58L33.28-8.58L36.38 0L35.11 0ZM32.53-7.31L31.17-3.52L33.84-3.52L32.58-7.31L32.53-7.31ZM38.81-8.58L43.13-1.64L43.13-8.58L44.25-8.58L44.25 0L42.94 0L38.58-6.94L38.53-6.94L38.53 0L37.41 0L37.41-8.58L38.81-8.58ZM55.64-6.09L55.64-6.09L54.56-6.09Q54.47-7.73 52.41-7.83L52.41-7.83Q50.48-7.78 50.48-6.33L50.48-6.33Q50.48-5.39 51.52-5.25L51.52-5.25L53.95-4.69Q55.88-4.22 55.88-2.34L55.88-2.34Q55.83 0.05 52.50 0.14L52.50 0.14Q50.67 0.14 49.92-0.61L49.92-0.61Q48.98-1.31 49.03-2.77L49.03-2.77L50.16-2.77Q50.20-0.80 52.50-0.75L52.50-0.75Q54.75-0.80 54.80-2.20L54.80-2.20Q54.98-3.38 52.92-3.75L52.92-3.75L51.14-4.13Q49.31-4.64 49.31-6.19L49.31-6.19Q49.45-8.72 52.31-8.81L52.31-8.81Q55.55-8.81 55.64-6.09ZM63-3.19L63-8.58L64.17-8.58L64.17-3.05Q64.03 0.05 60.66 0.14L60.66 0.14Q57.52 0.05 57.38-2.86L57.38-2.86L57.38-8.58L58.55-8.58L58.55-3.19Q58.59-0.84 60.70-0.80L60.70-0.80Q63-0.84 63-3.19L63-3.19ZM72.89-8.58L69.66-3.47L69.66 0L68.48 0L68.48-3.47L65.25-8.58L66.61-8.58L69.05-4.45L71.53-8.58L72.89-8.58ZM74.11-8.58L75.28-8.58L75.28 0L74.11 0L74.11-8.58ZM79.45-7.59L76.55-7.59L76.55-8.58L83.48-8.58L83.48-7.59L80.58-7.59L80.58 0L79.45 0L79.45-7.59ZM91.31-4.27L91.31-4.27Q91.13-7.64 88.31-7.83L88.31-7.83Q85.45-7.69 85.31-4.27L85.31-4.27Q85.45-0.94 88.31-0.80L88.31-0.80Q91.13-0.98 91.31-4.27ZM92.48-4.27L92.48-4.27Q92.20 0 88.31 0.14L88.31 0.14Q84.38 0 84.09-4.27L84.09-4.27Q84.33-8.72 88.31-8.81L88.31-8.81Q92.20-8.67 92.48-4.27ZM95.25-8.58L99.56-1.64L99.56-8.58L100.69-8.58L100.69 0L99.38 0L95.02-6.94L94.97-6.94L94.97 0L93.84 0L93.84-8.58L95.25-8.58ZM108.89-3.61L106.27-3.61L106.27-4.59L110.02-4.59L110.02 0L109.27 0L108.98-1.08Q108 0.09 106.17 0.14L106.17 0.14Q104.44 0.14 103.50-0.75L103.50-0.75Q102.09-2.06 102.14-4.36L102.14-4.36Q102.47-8.63 106.22-8.81L106.22-8.81Q109.41-8.63 109.88-6L109.88-6L108.75-6Q108.28-7.78 106.17-7.83L106.17-7.83Q103.50-7.64 103.36-4.31L103.36-4.31Q103.36-0.75 106.22-0.75L106.22-0.75Q107.25-0.75 108-1.31L108-1.31Q108.94-2.06 108.89-3.61L108.89-3.61Z" transform="translate(-0.1875, 8.8125)"></path></g></g></g></g></g><defs v-gra="od"></defs></svg>